<?xml version="1.0" standalone="no"?>
<!DOCTYPE svg PUBLIC "-//W3C//DTD SVG 20010904//EN"
 "http://www.w3.org/TR/2001/REC-SVG-20010904/DTD/svg10.dtd">
<svg version="1.0" xmlns="http://www.w3.org/2000/svg"
 width="132.000000pt" height="132.000000pt" viewBox="0 0 132.000000 132.000000"
 preserveAspectRatio="xMidYMid meet">
<metadata>
Created by potrace 1.14, written by Peter Selinger 2001-2017
</metadata>
<g transform="translate(0.000000,132.000000) scale(0.100000,-0.100000)"
fill="#000000" stroke="none">
<path d="M475 1289 c-44 -11 -116 -24 -160 -29 -115 -11 -180 -39 -242 -102
-60 -62 -73 -85 -73 -129 0 -31 1 -30 40 29 22 34 45 62 51 62 8 0 9 -4 0 -13
-6 -8 -7 -18 -3 -22 4 -5 2 -5 -4 -2 -6 4 -21 -15 -34 -44 -13 -27 -30 -55
-37 -61 -7 -6 -13 -24 -13 -40 0 -32 9 -32 75 -1 28 13 28 13 10 -2 -10 -8
-34 -21 -52 -27 -25 -9 -33 -18 -33 -36 0 -15 4 -21 12 -16 8 5 9 2 3 -12 -4
-10 -10 -44 -12 -74 l-4 -55 25 69 c24 66 46 104 46 79 0 -7 -14 -65 -32 -130
-30 -111 -32 -130 -36 -335 -4 -207 -3 -220 18 -262 23 -48 90 -116 115 -116
11 0 13 8 8 30 -5 30 -5 30 23 20 15 -6 38 -9 50 -6 26 7 57 -24 48 -48 -5
-14 4 -16 76 -16 72 0 84 3 99 22 18 22 41 18 41 -8 0 -10 13 -14 48 -14 l47
1 -35 18 c-41 22 -84 66 -77 78 3 5 25 23 50 41 l45 32 6 -38 c13 -75 30 -132
39 -132 9 0 7 29 -9 122 -4 23 -3 38 3 38 6 0 13 -18 17 -40 3 -22 13 -58 22
-80 15 -37 19 -40 53 -40 31 1 41 7 67 43 18 23 41 61 53 85 16 31 27 42 38
38 8 -3 26 -9 39 -12 29 -7 30 -13 7 -29 -10 -7 -18 -24 -18 -37 0 -16 -9 -27
-31 -37 -17 -7 -36 -22 -42 -32 -11 -17 -9 -19 13 -19 14 0 42 7 61 15 32 13
35 13 30 0 -4 -12 3 -15 30 -15 19 0 33 4 29 9 -11 18 16 23 40 7 31 -20 153
-22 198 -2 18 7 52 34 76 59 l44 45 -7 84 c-4 46 -7 94 -6 108 0 14 3 144 6
290 l5 266 -33 12 c-19 6 -43 19 -53 27 -12 10 -4 8 22 -5 52 -25 63 -25 63
-1 0 11 -12 23 -30 31 -17 7 -33 17 -36 22 -4 5 8 3 24 -6 17 -9 33 -16 37
-16 3 0 5 30 5 66 0 68 -13 109 -32 98 -7 -4 -8 -3 -4 4 11 19 -17 53 -59 73
-22 10 -34 19 -27 19 24 0 70 -29 96 -62 l26 -33 0 31 c0 21 -10 39 -32 61
-44 43 -77 54 -183 63 -49 4 -121 18 -160 30 -104 33 -357 38 -470 9z m172
-36 c-20 -2 -52 -2 -70 0 -17 2 0 4 38 4 39 0 53 -2 32 -4z m150 0 c-20 -2
-52 -2 -70 0 -17 2 0 4 38 4 39 0 53 -2 32 -4z m-282 -13 c-16 -4 -39 -8 -50
-8 -16 0 -15 2 5 8 14 4 36 8 50 8 22 0 22 -1 -5 -8z m368 3 c-7 -2 -21 -2
-30 0 -10 3 -4 5 12 5 17 0 24 -2 18 -5z m-293 -13 c0 -5 -5 -10 -11 -10 -5 0
-7 5 -4 10 3 6 8 10 11 10 2 0 4 -4 4 -10z m337 4 c-3 -3 -12 -4 -19 -1 -8 3
-5 6 6 6 11 1 17 -2 13 -5z m-494 -11 c-7 -2 -21 -2 -30 0 -10 3 -4 5 12 5 17
0 24 -2 18 -5z m364 1 c-3 -3 -12 -4 -19 -1 -8 3 -5 6 6 6 11 1 17 -2 13 -5z
m188 -4 c13 -5 14 -9 5 -9 -8 0 -24 4 -35 9 -13 5 -14 9 -5 9 8 0 24 -4 35 -9z
m-627 -7 c-10 -2 -28 -2 -40 0 -13 2 -5 4 17 4 22 1 32 -1 23 -4z m-75 -10
c-7 -2 -19 -2 -25 0 -7 3 -2 5 12 5 14 0 19 -2 13 -5z m830 0 c-13 -2 -35 -2
-50 0 -16 2 -5 4 22 4 28 0 40 -2 28 -4z m-903 -18 c-46 -18 -64 -17 -25 0 17
8 37 14 45 14 8 0 -1 -7 -20 -14z m963 8 c-7 -2 -19 -2 -25 0 -7 3 -2 5 12 5
14 0 19 -2 13 -5z m-1038 -43 c-10 -11 -22 -20 -28 -20 -5 0 1 9 14 20 31 25
37 25 14 0z m996 -95 c46 -44 75 -73 64 -65 -27 19 -167 152 -156 148 5 -2 46
-39 92 -83z m-151 55 c-6 -11 -13 -20 -16 -20 -2 0 0 9 6 20 6 11 13 20 16 20
2 0 0 -9 -6 -20z m-685 -21 c11 -16 1 -19 -13 -3 -7 8 -8 14 -3 14 5 0 13 -5
16 -11z m735 -1 c0 -6 8 -20 17 -30 16 -18 16 -19 -18 -17 -40 2 -163 -51
-172 -75 -9 -23 -37 -20 -37 3 0 11 -4 23 -10 26 -21 13 -9 26 18 20 33 -7
159 43 174 69 10 19 28 21 28 4z m-80 -2 c0 -2 -13 -9 -30 -15 -35 -12 -41 -5
-7 9 25 10 37 12 37 6z m-734 -51 c-26 -25 -62 -54 -80 -66 -21 -14 -19 -11 9
13 22 18 56 48 75 65 19 18 37 32 40 32 3 0 -17 -20 -44 -44z m543 32 c7 -9
30 -13 67 -12 31 1 50 -1 44 -5 -18 -11 -99 -5 -112 8 -19 19 -38 14 -39 -10
0 -13 -3 -17 -6 -10 -13 33 23 56 46 29z m-478 -25 c-5 -10 -18 -25 -27 -33
-11 -9 -9 -2 6 19 26 35 36 42 21 14z m149 -9 c0 -5 -13 -17 -28 -27 l-27 -19
24 26 c26 28 31 32 31 20z m27 -40 c-3 -10 -5 -2 -5 17 0 19 2 27 5 18 2 -10
2 -26 0 -35z m270 -35 c-2 -13 -4 -3 -4 22 0 25 2 35 4 23 2 -13 2 -33 0 -45z
m63 0 c0 -9 6 -21 14 -25 8 -4 22 -26 32 -48 10 -22 19 -42 21 -45 2 -3 -15
-4 -38 -2 -22 2 -42 9 -44 16 -2 6 -5 44 -8 84 -4 62 -2 70 9 55 7 -10 14 -26
14 -35z m256 43 c-3 -5 -15 -7 -26 -4 -28 7 -25 13 6 13 14 0 23 -4 20 -9z
m-66 -11 c-8 -5 -19 -10 -25 -10 -5 0 -3 5 5 10 8 5 20 10 25 10 6 0 3 -5 -5
-10z m113 -15 c-3 -8 0 -15 6 -15 6 0 11 -6 11 -14 0 -9 -12 -13 -37 -13 -45
1 -158 -51 -158 -72 0 -8 -6 -16 -12 -18 -7 -3 -13 3 -13 11 0 9 -7 19 -15 22
-24 10 -17 24 11 24 31 0 164 60 183 83 15 19 33 13 24 -8z m-858 6 c-3 -5
-24 -24 -48 -41 l-42 -32 45 41 c46 41 56 48 45 32z m775 -1 c-8 -5 -19 -10
-25 -10 -5 0 -3 5 5 10 8 5 20 10 25 10 6 0 3 -5 -5 -10z m-630 -3 c0 -2 -10
-12 -22 -23 l-23 -19 19 23 c18 21 26 27 26 19z m538 -13 c-16 -8 -28 -19 -28
-24 0 -6 -4 -10 -10 -10 -16 0 0 27 23 38 34 16 46 13 15 -4z m232 -12 c0 -15
-2 -15 -10 -2 -13 20 -13 33 0 25 6 -3 10 -14 10 -23z m-935 -42 c-19 -28 -35
-48 -35 -44 0 11 63 104 67 100 2 -2 -12 -27 -32 -56z m205 -14 c0 -72 0 -74
-27 -79 -16 -3 -37 -13 -48 -22 -19 -16 -19 -16 10 -11 17 3 39 8 51 12 18 5
23 -1 33 -42 7 -26 19 -60 26 -75 14 -26 13 -28 -5 -34 -11 -4 -18 -10 -15
-15 3 -5 12 -7 20 -4 7 3 23 0 34 -6 19 -10 22 -8 28 20 6 31 6 31 17 8 20
-40 119 -37 132 4 l6 21 17 -21 c15 -19 20 -20 59 -9 47 12 56 27 16 27 -20 0
-25 4 -20 17 4 9 9 43 13 76 l6 59 44 -6 c58 -8 59 -8 72 -61 7 -27 17 -45 25
-45 22 0 53 46 77 112 l22 59 39 -83 c36 -75 39 -89 34 -139 -8 -83 -12 -89
-48 -77 -21 7 -26 14 -19 21 20 20 12 26 -19 15 -21 -7 -49 -7 -93 1 -79 14
-121 14 -169 0 -44 -11 -52 -39 -13 -39 23 0 24 -2 15 -21 -16 -29 5 -76 43
-96 46 -23 149 -14 182 17 14 13 25 32 25 42 0 18 23 24 54 12 14 -5 14 -9 0
-35 -9 -18 -19 -27 -26 -23 -8 5 -9 1 -5 -10 6 -14 3 -16 -15 -10 -21 6 -22 5
-8 -11 12 -15 12 -18 -3 -26 -18 -11 -23 -39 -7 -39 6 0 8 -12 5 -27 l-6 -28
21 28 c12 15 31 27 42 27 23 0 21 -18 -11 -93 -19 -43 -22 -46 -76 -57 -195
-41 -430 -38 -626 6 -83 19 -170 69 -183 106 -13 38 23 78 71 78 18 0 33 4 33
10 0 5 7 7 15 4 9 -4 15 0 15 9 0 10 -8 14 -24 13 -17 -2 -27 4 -35 21 -15 32
-14 32 12 42 59 22 66 23 60 3 -3 -11 5 -30 19 -46 66 -77 249 -8 210 78 -8
19 -8 26 1 30 9 3 8 8 -3 16 -18 14 -165 7 -230 -10 -33 -9 -52 -9 -72 -1 -27
10 -28 14 -28 79 0 68 20 165 42 205 11 20 13 19 19 -23 4 -25 14 -63 24 -85
l17 -40 18 51 c24 70 92 194 106 194 2 0 4 -33 4 -74z m-143 32 c-3 -7 -5 -2
-5 12 0 14 2 19 5 13 2 -7 2 -19 0 -25z m933 -5 c0 -7 -39 17 -46 28 -3 6 5 3
20 -6 14 -10 26 -19 26 -22z m-280 23 c0 -2 -7 -7 -16 -10 -8 -3 -12 -2 -9 4
6 10 25 14 25 6z m212 -38 c-7 -7 -12 -21 -13 -32 0 -13 -3 -16 -6 -8 -6 15
17 65 26 57 2 -3 -1 -11 -7 -17z m-572 -23 c0 -41 -26 -49 -36 -11 -7 29 1 46
22 46 9 0 14 -11 14 -35z m60 20 c14 -16 6 -35 -16 -35 -8 0 -14 10 -14 25 0
28 12 32 30 10z m-509 -15 c-13 -11 -28 -20 -35 -20 -6 0 3 9 19 19 39 25 46
25 16 1z m166 -27 c-3 -10 -5 -2 -5 17 0 19 2 27 5 18 2 -10 2 -26 0 -35z
m674 -6 c-6 -8 -9 -17 -6 -21 3 -3 -1 -1 -7 4 -10 9 -10 13 2 20 21 13 24 12
11 -3z m-434 -3 c-3 -3 -12 -4 -19 -1 -8 3 -5 6 6 6 11 1 17 -2 13 -5z m176
-1 c-7 -2 -19 -2 -25 0 -7 3 -2 5 12 5 14 0 19 -2 13 -5z m-532 -34 c-5 -13
-10 -19 -10 -12 -1 15 10 45 15 40 3 -2 0 -15 -5 -28z m374 2 c-3 -6 -11 -11
-16 -11 -5 0 -4 6 3 14 14 16 24 13 13 -3z m592 -123 c-2 -29 -3 -8 -3 47 0
55 1 79 3 53 2 -26 2 -71 0 -100z m-547 122 c0 -5 -5 -10 -11 -10 -5 0 -7 5
-4 10 3 6 8 10 11 10 2 0 4 -4 4 -10z m358 -15 c-3 -3 -9 2 -12 12 -6 14 -5
15 5 6 7 -7 10 -15 7 -18z m-251 9 c-3 -3 -12 -4 -19 -1 -8 3 -5 6 6 6 11 1
17 -2 13 -5z m-540 -46 c-3 -8 -6 -5 -6 6 -1 11 2 17 5 13 3 -3 4 -12 1 -19z
m777 7 c-4 -8 -7 -15 -9 -15 -2 0 -5 7 -9 15 -3 9 0 15 9 15 9 0 12 -6 9 -15z
m-787 -92 c-2 -16 -4 -5 -4 22 0 28 2 40 4 28 2 -13 2 -35 0 -50z m510 35 c-3
-8 -6 -5 -6 6 -1 11 2 17 5 13 3 -3 4 -12 1 -19z m-45 -50 c15 2 29 11 31 20
4 13 5 12 6 -4 1 -18 -6 -23 -35 -26 -33 -4 -38 -1 -50 29 -19 45 -16 55 4 13
14 -29 22 -34 44 -32z m-475 -153 l-21 -20 16 20 c11 14 15 35 12 75 l-3 55 9
-55 c8 -50 7 -57 -13 -75z m990 88 c-5 -30 -2 -42 16 -62 l22 -24 -28 19 c-22
15 -26 24 -22 48 3 16 5 35 5 42 0 8 3 14 6 14 4 0 4 -17 1 -37z m-922 -33 c3
-5 1 -10 -4 -10 -6 0 -11 5 -11 10 0 6 2 10 4 10 3 0 8 -4 11 -10z m585 -10
c0 -5 -7 -10 -15 -10 -8 0 -15 5 -15 10 0 6 7 10 15 10 8 0 15 -4 15 -10z
m-440 -20 c0 -5 -7 -10 -15 -10 -8 0 -15 5 -15 10 0 6 7 10 15 10 8 0 15 -4
15 -10z m759 -38 c-7 -3 -20 -12 -27 -21 -10 -13 -10 -11 -1 11 8 18 16 24 27
20 13 -5 14 -6 1 -10z m-39 -46 c0 -2 -8 -10 -17 -17 -16 -13 -17 -12 -4 4 13
16 21 21 21 13z m-271 -298 c-7 -13 -25 -42 -41 -66 -26 -38 -33 -42 -65 -40
-26 2 -37 8 -44 26 -13 34 -12 36 14 19 20 -13 28 -13 55 -1 33 13 40 28 21
40 -11 7 36 42 59 43 10 1 10 -4 1 -21z m-150 -2 c9 -10 8 -16 -4 -26 -13 -11
-15 -8 -15 14 0 30 3 32 19 12z m58 -22 c-3 -3 -12 -4 -19 -1 -8 3 -5 6 6 6
11 1 17 -2 13 -5z"/>
<path d="M202 369 c-17 -27 -5 -40 14 -15 8 11 14 23 14 28 0 15 -15 8 -28
-13z"/>
<path d="M267 372 c-19 -21 -22 -32 -7 -32 10 0 34 39 27 46 -2 2 -11 -4 -20
-14z"/>
<path d="M917 362 c-10 -11 -14 -23 -9 -26 12 -7 35 19 30 34 -2 7 -11 3 -21
-8z"/>
<path d="M543 323 c-24 -2 -43 -8 -43 -13 0 -15 44 -22 72 -11 28 11 47 32 26
29 -7 -1 -32 -3 -55 -5z"/>
<path d="M630 322 c0 -13 54 -32 90 -32 15 0 33 7 40 15 17 20 5 32 -15 15
-14 -11 -61 -8 -101 7 -8 3 -14 1 -14 -5z"/>
</g>
</svg>
